<svg width="30" height="30" viewBox="0 0 30 30" fill="none" xmlns="http://www.w3.org/2000/svg">
<path d="M21.88 9.37625H9.375V21.88H21.8788L21.88 9.37625Z" fill="#0079FF"/>
<path d="M26.8812 6.875V4.375H24.3812V1.875H21.88V4.375H19.38V1.875H16.8788V4.375H14.3788V1.875H11.8763V4.375H9.37625V1.875H6.875V4.375H4.375V6.875H1.875V9.37625H4.375V11.8763H1.875V14.3775H4.375V16.8775H1.875V19.3788H4.375V21.8788H1.875V24.38H4.375V26.88H6.875V29.3812H9.37625V26.8812H11.8763V29.3812H14.3775V26.8812H16.8775V29.3812H19.3788V26.8812H21.8788V29.3812H24.38V26.8812H26.88V24.3812H29.3812V21.88H26.8812V19.38H29.3812V16.8788H26.8812V14.3788H29.3812V11.8763H26.8812V9.37625H29.3812V6.875H26.8812ZM24.3812 24.38H6.875V6.87625H24.3788L24.3812 24.38Z" fill="#0079FF"/>
</svg>
